<svg version="1.2" baseProfile="tiny-ps" xmlns="http://www.w3.org/2000/svg" viewBox="0 0 426 418" width="426" height="418">
	<title>73-svg</title>
	<style>
		tspan { white-space:pre }
		.s0 { fill: #000000 } 
	</style>
	<g id="Layer">
		<path id="Layer" class="s0" d="m269.6 24c65.7 11.2 117.4 60.8 133 127.5c2.7 11.2 2.8 13.4 2.9 34.5c0 19.6-0.3 23.9-2.3 33.2c-5.9 28.3-18.7 54.3-37.3 75.7c-7.8 9-21.5 21.4-29.7 26.9l-5.3 3.5l-5.9-5.8l-5.8-5.8l8.6-6.1c24.7-17.4 44.1-44 54.1-74.1c5.5-16.6 7.4-28.9 7.4-46.5c0-40.6-15.2-77.1-44.1-105.6c-42.5-42-105.9-54.6-160.8-31.9c-32.1 13.3-58.8 37.8-74.9 68.7c-4.9 9.5-10 22.7-12.4 32.3c-0.8 3.1-3.2 6.2-10.6 13.5l-9.5 9.5v-3.7c0-6 3.9-24.3 7.5-35.3c19.1-58.4 71.8-102.4 133.1-111.4c11.9-1.7 39.4-1.2 52 0.9z" />
		<path id="Layer" fill-rule="evenodd" class="s0" d="m167.5 107.1c3.4 0.9 9.2 6.3 36.2 33.2c17.8 17.7 33 33.6 33.8 35.3c5.2 11-2.7 24.2-15 25.2c-3.2 0.3-6 0-6.8-0.6c-1-0.9-3.8 1.4-12.2 9.8c-6 6-10.7 11.2-10.4 11.4c0.2 0.3 13.8 14 30.1 30.4c29.4 29.5 29.8 29.8 33.4 29.4c3-0.4 4 0 6 2.3c1.3 1.6 2.4 2.4 2.4 2c0-1.3 4.1 2.7 6.1 6c1.1 1.6 1.9 2.6 1.9 2.1c0-0.5 1.1 0.1 2.5 1.4c1.4 1.3 2.5 2.8 2.5 3.2c0 0.5 0.7 1.6 1.5 2.4c0.8 0.9 1.5 1.2 1.5 0.8c0-0.4 1.3 0.5 3 2.1c1.6 1.5 2.8 3.1 2.6 3.4c-0.2 0.3 0.2 1.2 1 1.9c0.8 0.7 1.4 1 1.4 0.6c0-0.4 1.3 0.5 3 2.1c1.6 1.5 2.8 3.1 2.6 3.4c-0.2 0.3 0.2 1.2 1 1.9c0.8 0.7 1.4 1 1.4 0.6c0-0.4 1.3 0.5 3 2.1c1.6 1.5 2.8 3.1 2.6 3.4c-0.2 0.3 0.2 1.2 1 1.9c0.8 0.7 1.4 1 1.4 0.6c0-0.4 1.3 0.5 3 2.1c1.6 1.5 2.8 3.1 2.6 3.4c-0.2 0.3 0.2 1.2 1 1.9c0.8 0.7 1.4 1 1.4 0.6c0-0.4 1.3 0.5 3 2.1c1.6 1.5 2.8 3.1 2.6 3.4c-0.2 0.3 0.2 1.2 1 1.9c0.8 0.7 1.4 1 1.4 0.6c0-0.4 1.3 0.5 3 2.1c1.6 1.5 2.7 3.1 2.5 3.5c-0.2 0.3 0.7 1.4 2 2.4c1.4 1 2.2 2.2 1.9 2.7c-0.3 0.5-0.1 0.9 0.5 0.9c0.5 0 1.7 2 2.6 4.4c2.2 5.6 1.7 17.5-0.9 22.7c-2.5 5.3-8.6 12.1-10.2 11.5c-0.8-0.3-1.4 0.1-1.4 0.8c0 2.4-8.8 5.1-16.1 5c-11.7-0.1-13.8-1.7-52.6-40.4c-35.6-35.7-35.9-36.1-33.2-41.3c0.7-1.2 0.8-1.9 0.3-1.4c-1.1 1-8.5-6.3-7.7-7.7c0.3-0.6 0.2-0.8-0.2-0.3c-1.2 1-8.6-6.3-7.8-7.7c0.3-0.6 0.2-0.8-0.2-0.3c-1.2 1-8.6-6.3-7.8-7.7c0.3-0.6 0.2-0.8-0.2-0.3c-1.1 1-8.6-6.3-7.8-7.6c0.3-0.6 0.2-0.7-0.4-0.4c-1.1 0.7-8.6-6.6-7.8-7.6c0.3-0.4 0.2-0.5-0.2-0.2c-1 0.8-8.3-6.7-7.6-7.8c0.3-0.6 0.2-0.7-0.4-0.4c-1.3 0.8-8.5-6.7-7.6-7.9c0.5-0.5 0.4-0.6-0.1-0.1c-0.5 0.4-2-0.3-3.3-1.5l-2.4-2.2l-20.9 20.9l1 3.5c1.1 3.8-0.4 13-2.1 13c-0.5 0-0.9 0.7-0.9 1.4c0 0.8-1.7 2.8-3.7 4.3c-4.7 3.6-13.7 4.2-19.3 1.3c-5.3-2.8-64.6-62.7-66.5-67.2c-4.8-11.8 4-24.8 17-24.8c2.8 0 5.5 0.4 6.1 1c0.9 0.9 7.4-4.1 7.4-5.8c0-0.4 1.8-2 4-3.6c2.2-1.7 4-3.5 4-4c0.1-0.6 1.2-2 2.6-3.1c1.4-1.1 3.1-2.6 3.7-3.3c0.7-0.7 2.4-2.5 3.9-4c1.5-1.5 3.3-3.3 4-4c10.4-10.9 24.1-24.2 24.8-24.2c0.6 0 1-0.5 1-1.1c0-0.5 2.9-4 6.5-7.6c3.6-3.6 6.5-6.2 6.5-5.9c0 0.4 0.7 0.1 1.5-0.8c0.8-0.8 1.5-1.9 1.5-2.4c0-0.6 1.3-2.1 2.9-3.5c2.7-2.2 2.9-2.8 2.1-6.3c-2.1-9 2.8-17.8 11.7-20.9c4.7-1.7 5.8-1.8 10.8-0.4zm-4.7 11.9c-2.3 0-5.8 3.5-5.8 5.7c0 1.9 60.5 63 63.2 63.9c2.5 0.8 5.7-1.3 6.4-4.2c0.6-2.4-2.2-5.5-30.7-34c-17.4-17.4-32.2-31.4-33.1-31.4zm-8.1 23c-0.1 0-17.1 16.8-37.7 37.4l-37.5 37.3l24.9 24.8l24.8 24.7l37-37l37-36.9l-2.3-3.6c-1.3-2-3.2-3.8-4.1-4.1c-1-0.2-1.8-1-1.8-1.8c-0.1-0.7-1.9-2.7-4-4.3c-2.1-1.7-3.9-3.3-4-3.7c0-1.1-6.1-6.8-7.1-6.8c-0.5 0-0.9-0.3-0.9-0.8c0-0.4-5.4-6.2-12.1-13c-6.6-6.7-12.1-12.2-12.2-12.2zm-96 78.8c-3.9 4.3-3.1 5.3 29.7 38.1l31.4 31.4l3.1-2.2c6-4.3 5.5-5.1-22.1-32.9c-13.9-14-27.9-27.9-31-30.8c-6.2-5.8-8.5-6.5-11.1-3.6zm125.2 9.8c-0.3-0.3-4.1 3.1-8.5 7.5l-7.9 8l30.4 29.9c16.6 16.5 30.8 30 31.5 30c0.6 0 4.3-3.3 8.3-7.3l7.1-7.4l-30.1-30.1c-16.6-16.6-30.4-30.4-30.8-30.6zm74 65.4c-0.5 0-1.4 0.7-2.1 1.5c-2.3 2.8-3.5 4-6.5 6.7c-1.7 1.4-3.2 3-3.4 3.5c-0.2 0.5-2.1 2.2-4.1 3.7c-2.1 1.6-3.8 3.3-3.8 3.8c0 0.5-1 1.8-2.2 2.8l-2.3 1.9l10.5 10.6c34 34.4 52.4 52.2 55.3 53.4c2.1 0.9 5.1 1.1 8.9 0.7c5-0.5 6.2-1.1 9.3-4.3c5.6-6.1 7-15.9 3-21.7c-0.8-1.1-15.1-15.7-31.7-32.4c-16.6-16.6-30.5-30.2-30.9-30.2z" />
		<path id="Layer" fill-rule="evenodd" class="s0" d="m293 115.6c2.2 0.9 4 2.2 4 2.9c0 0.7 0.7 1.2 1.6 1.1c1 0 3 2 4.8 4.9c2.6 4.2 3.1 6 3 11c0 4.1-0.7 7.3-2.2 10.1c-2.8 5.5-7.7 9.6-10.6 8.8c-1.5-0.3-2.8 0.2-4 1.5c-1.1 1.2-2.9 2.1-4.1 2.1c-3.8 0-12.3-3-12.9-4.5c-0.3-0.8-1.1-1.5-1.8-1.5c-1.7 0-5.6-5.8-6.8-10.1c-1.6-5.6-1.2-10.2 1.5-15.6c3.2-6.4 5-8 6.9-6.4c1.2 1 1.4 0.9 0.9-0.7c-0.3-1.4 0.3-2.2 2.6-3.1c1.6-0.7 3.5-1 4.2-0.5c0.8 0.4 1 0.3 0.5-0.4c-1.1-1.8 7.6-1.5 12.4 0.4zm-13.5 7.4c-4.4 1.8-7.6 6.6-8.4 12.4c-0.4 3.1-0.6 5.4-0.3 5.1c0.2-0.2 1.4 1 2.6 2.8c6.5 9.8 21 8 24.7-3c2.1-6.4-1-13.6-7.1-16.8c-3.1-1.6-8.3-1.9-11.5-0.5z" />
		<path id="Layer" fill-rule="evenodd" class="s0" d="m347.7 138.6c7.2 5.4 9.4 14.4 5.3 22.3c-3.9 7.8-14.3 11.1-22.2 7.2c-4.2-2.1-7.8-5.9-8.2-8.6c-0.1-0.8-0.5-1.8-0.9-2.1c-1.4-1.4-0.7-8.6 1.2-12.3c2-3.8 3.7-5.6 7.5-7.8c3.3-1.9 14-1.1 17.3 1.3zm-19 19.5c2.6 4.4 7.7 6.4 12.5 5c8.1-2.5 10.2-12.6 3.8-18.4c-8.8-7.9-22.3 3.1-16.3 13.4z" />
		<path id="Layer" fill-rule="evenodd" class="s0" d="m276 162.5c2.3 0.8 6.4 1.5 9 1.5c2.6 0 6.7-0.7 9-1.5c5.9-2.1 9.9-1.9 14.2 0.8c3.9 2.3 8.8 8.1 8.8 10.4c0 1.6 0 1.6 3.9-0.3c3.2-1.6 4.7-1.5 13.1 0.6c3.7 0.9 5.7 0.8 11.1-0.6c6.4-1.6 6.7-1.6 10.5 0.2c2.7 1.3 4.6 3.3 6.2 6.4c2.1 4 2.3 5.6 2 15.7c-0.4 16.3 0.5 15.7-24.4 16.1c-15.7 0.3-20 0-22.4-1.2c-2.6-1.3-3.3-1.3-6 0c-2.4 1.2-7.4 1.4-27.4 1.2l-24.6-0.3l-3.2-3.3l-3.3-3.2l-0.3-13.3c-0.5-18.1 1.3-23.3 9.6-28.4c4.3-2.7 8.3-2.9 14.2-0.8zm-12.6 9.9l-3.5 3.5l0.6 27.6h49l0.3-13c0.2-14.1-0.3-16.4-5.1-19.9c-2.7-2-2.9-2-9.1-0.3c-7.9 2.1-13.8 2.2-20.2 0.2c-7-2.1-8.2-1.9-12 1.9zm63.1 6.1c-1.4-0.4-3 0.2-4.8 1.9c-2.7 2.5-2.8 2.7-2.5 13.8l0.3 11.3l17.9 0.3c12.3 0.2 18.3-0.1 19.2-0.9c1-0.8 1.4-3.7 1.4-10c0-10-0.9-13.1-4.3-15.4c-2.3-1.4-3-1.4-8.5 0.1c-5 1.4-7 1.5-11.4 0.6c-2.9-0.6-6.2-1.4-7.3-1.7z" />
		<path id="Layer" fill-rule="evenodd" class="s0" d="m121.2 338c41.9 0 63.6 0.4 65.5 1.1c1.5 0.5 4.1 2.2 5.6 3.7c5.2 4.9 6.1 7.8 6.4 20.1c0.2 6.3 0.4 11.5 0.5 11.6c3.1 1.5 7.9 6.2 9.2 8.8c1.7 3.7 2.3 21.1 0.8 23.3c-2.2 3.3-4.7 3.4-88.7 3.4h-83.6l-2.6-2.6c-2.5-2.5-2.5-2.9-2.1-11.7c0.6-10.8 2.2-14.6 7.8-18.5l3.9-2.7l0.1-10.1c0-14.6 2.7-21 10.4-24.5c3.9-1.7 7.8-1.9 66.8-1.9zm-2.9 12.8c-68.8 0.3-61.5-1.4-61.1 13.5l0.3 9.2l64.3 0.3l64.2 0.2v-10.4c0-7.1-0.4-10.7-1.2-11.4c-2.2-1.6-5.4-1.7-66.5-1.4zm3 35.2c-69.4 0-73.1 0.1-74.6 1.8c-1 1-1.7 3.5-1.7 5.5v3.7h153v-3.8c0-2.5-0.7-4.5-1.8-5.5c-1.7-1.6-8.3-1.7-74.9-1.7z" />
	</g>
</svg>