<?xml version="1.0" encoding="utf-8"?>
<!-- Generator: Adobe Illustrator 23.0.2, SVG Export Plug-In . SVG Version: 6.00 Build 0)  -->
<svg version="1.1" id="Camada_1" xmlns="http://www.w3.org/2000/svg" xmlns:xlink="http://www.w3.org/1999/xlink" x="0px" y="0px"
	 viewBox="0 0 50 50" style="enable-background:new 0 0 50 50;" xml:space="preserve">
<style type="text/css">
	.st0{fill:#FAA51A;}
	.st1{fill:#F9A518;}
</style>
<g>
	<path class="st0" d="M36.8,17.8l-3.9-8.6V8.3c0.5-0.1,0.8-0.6,0.8-1c0-0.5-0.4-0.9-0.8-1l-6.3-1V4.8c0.6-0.7,0.6-1.9-0.2-2.5
		s-1.9-0.6-2.6,0.2c-0.6,0.7-0.7,1.7-0.1,2.3v0.3l-6.4,1c-0.5,0.1-0.8,0.5-0.8,1.1c0,0.5,0.4,0.8,0.8,1v0.8l-3.9,8.7v0.2h0.3l0,0
		l0,0h-0.3h0.3h-0.3c0,1.7,2.1,3,4.6,3c2.6,0,4.6-1.3,4.6-3h-0.3l0,0l0,0h0.3v-0.2l-4-8.7V8.3h5.2v7.8c-0.3,0.2-0.4,0.5-0.4,0.8v5.3
		l-2.2,0.7c-0.6,0.2-1,0.7-1,1.4V25c0,0.4,0.3,0.7,0.7,0.7h8.8c0.4,0,0.7-0.3,0.7-0.7v-0.7c0-0.7-0.4-1.2-1-1.4L27,22.3v-5.3
		c0-0.3-0.2-0.7-0.4-0.8V8.3h5v0.8l-3.9,8.7v0.2H28l0,0l0,0h-0.3H28h-0.3c0,1.7,2.1,3,4.6,3s4.6-1.3,4.6-3L36.8,17.8L36.8,17.8z
		 M35.4,18.7c-0.6,0.7-1.8,1.1-3.1,1.1h-0.1c-1.3,0-2.5-0.5-3-1.1H35.4z M29.2,17.4l3-6.7l3,6.7H29.2z M26.2,23.3l2.5,0.7
		c0.1,0,0.1,0.1,0.1,0.1h-7.5c0-0.1,0.1-0.1,0.1-0.1l2.5-0.7H26.2z M20.9,18.7c-0.6,0.7-1.8,1.1-3.1,1.1l0,0c-1.3,0-2.6-0.5-3.1-1.1
		H20.9z M14.9,17.4l3-6.7l3,6.7H14.9z M23.7,6.4v0.7h-3.7L23.7,6.4z M25.6,3.6c0,0.3-0.3,0.6-0.6,0.6s-0.6-0.3-0.6-0.6
		s0.3-0.6,0.6-0.6C25.4,3.1,25.6,3.3,25.6,3.6z M25.3,5.5v10.3h-0.4V5.5C25,5.5,25.1,5.5,25.3,5.5z M24.5,22v-5h1.1v5H24.5z M26.5,7
		V6.4L30.1,7H26.5z"/>
	<g id="Group_355">
		<path id="Path_353" class="st1" d="M31.2,37.6l-0.7-0.4c-0.4-0.2-0.8,0-1,0.4l-2.2,4.7c-0.2,0.4,0,0.8,0.4,1l0,0l10.3,5
			c0.4,0.2,0.8,0,1-0.4l2.2-4.7c0.2-0.4,0-0.8-0.4-1l-0.5-0.3l-0.1-1.5c0-0.6,0.1-1.1,0.5-1.6l5.3-6.5l0,0c1.1-1.5,1.7-3.4,1.7-5.2
			V27l-2.2-13.8c-0.1-0.4-0.5-0.7-0.8-0.7c-1.8,0.2-3.2,1.8-3.1,3.6l0.1,5.6c-1.5,0.2-2.8,1-3.5,2.4l-2.1,4.3
			c-0.3,0.7-0.7,1.2-1.4,1.7l-0.3,0.3C32.3,32.2,31.1,34.8,31.2,37.6z M37.8,46.5l-9-4.3l1.6-3.4l9,4.3L37.8,46.5z M35.4,31.6
			l0.5-0.4c0.7-0.6,1.4-1.4,1.8-2.2l2.1-4.3c0.6-1.1,1.8-1.8,3-1.5l-3,6.3c-0.2,0.4,0,0.8,0.4,1s0.8,0,1-0.4l3.4-7
			c0.2-0.4,0-0.8-0.4-1l0,0c-0.3-0.1-0.5-0.2-0.7-0.3L43.2,16l0,0c0-0.7,0.4-1.4,1-1.8l2.1,12.9c0,1.5-0.5,3.1-1.4,4.3l-5.3,6.5
			c-0.7,0.7-0.9,1.7-0.8,2.6v0.6l-5.9-2.8C32.4,35.9,33.4,33.2,35.4,31.6z"/>
		<path id="Path_354" class="st1" d="M11.9,24.1c-0.7-1.3-2-2.2-3.5-2.4l0.1-5.6c0.1-1.9-1.3-3.4-3.1-3.6c-0.4,0-0.7,0.3-0.8,0.7
			L2.4,27V27c0,1.9,0.6,3.7,1.7,5.3l0,0l5.3,6.5c0.4,0.5,0.6,1,0.5,1.6l0,1.5l-0.5,0.2c-0.4,0.2-0.6,0.7-0.4,1l2.2,4.7
			c0.2,0.4,0.7,0.6,1,0.4l10.3-5c0.4-0.2,0.6-0.7,0.4-1l0,0l-2.2-4.7c-0.2-0.4-0.7-0.6-1-0.4l-0.8,0.4c0.1-2.7-1.1-5.4-3.3-7.1
			L15.1,30c-0.6-0.5-1-1-1.4-1.7L11.9,24.1z M21.3,42.2l-9,4.3l-1.6-3.4l9-4.3L21.3,42.2z M14.8,31.6c2.1,1.6,3,4.2,2.6,6.7
			l-5.9,2.8v-0.6c0.1-0.9-0.2-2-0.8-2.6l-5.3-6.5c-0.9-1.2-1.4-2.8-1.4-4.3L6,14.3c0.7,0.4,1,1,1,1.8l0,0l-0.2,5.8
			c-0.3,0.1-0.5,0.2-0.7,0.3c-0.4,0.2-0.6,0.7-0.4,1l3.5,6.9c0.2,0.4,0.7,0.6,1,0.4c0.4-0.2,0.6-0.7,0.4-1l-3-6.3
			c1.2-0.2,2.4,0.5,3,1.6l2.1,4.3c0.4,0.8,1,1.7,1.8,2.2L14.8,31.6z"/>
	</g>
</g>
</svg>
