<?xml version="1.0" encoding="utf-8"?>
<!-- Generator: Adobe Illustrator 23.0.1, SVG Export Plug-In . SVG Version: 6.00 Build 0)  -->
<svg version="1.1" id="Camada_1" xmlns="http://www.w3.org/2000/svg" xmlns:xlink="http://www.w3.org/1999/xlink" x="0px" y="0px"
	 viewBox="0 0 50 50" style="enable-background:new 0 0 50 50;" xml:space="preserve">
<style type="text/css">
	.st0{fill:#FAA61A;stroke:#FAA61A;stroke-width:0.4;}
</style>
<g transform="translate(0.2 0.2)">
	<g transform="translate(18)">
		<path class="st0" d="M6.8,2.3c-2.5,0-4.5,2-4.5,4.5s2,4.5,4.5,4.5s4.5-2,4.5-4.5S9.3,2.3,6.8,2.3z M6.8,9.8c-1.7,0-3-1.3-3-3
			s1.3-3,3-3s3,1.3,3,3S8.5,9.8,6.8,9.8z"/>
	</g>
	<g transform="translate(15.75 9.75)">
		<path class="st0" d="M12,2.3h-0.2l-0.2,0.1c-1.7,0.8-3.7,0.8-5.3,0L6.2,2.3H6.1C4,2.3,2.3,4,2.3,6v4.5c0,1.2,1,2.3,2.3,2.3h9
			c1.2,0,2.3-1,2.3-2.3V6C15.8,4,14.1,2.3,12,2.3z M14.3,10.5c0,0.4-0.3,0.8-0.8,0.8h-9c-0.4,0-0.8-0.3-0.8-0.8V6
			c0-1.2,0.9-2.2,2.1-2.2c2,0.9,4.3,0.9,6.3,0c1.2,0.1,2.1,1.1,2.1,2.2V10.5z"/>
	</g>
	<g transform="translate(33.75 24.75)">
		<path class="st0" d="M6.8,2.3c-2.5,0-4.5,2-4.5,4.5s2,4.5,4.5,4.5s4.5-2,4.5-4.5S9.3,2.3,6.8,2.3z M6.8,9.8c-1.7,0-3-1.3-3-3
			s1.3-3,3-3s3,1.3,3,3S8.5,9.8,6.8,9.8z"/>
	</g>
	<g transform="translate(31.5 34.5)">
		<path class="st0" d="M12,2.3h-0.2l-0.2,0.1c-1.7,0.8-3.7,0.8-5.3,0L6.2,2.3H6.1C4,2.3,2.3,4,2.3,6v4.5c0,1.2,1,2.3,2.3,2.3l0,0h9
			c1.2,0,2.3-1,2.3-2.3l0,0V6C15.8,4,14.1,2.3,12,2.3z M14.3,10.5c0,0.4-0.3,0.8-0.8,0.8h-9c-0.4,0-0.8-0.3-0.8-0.8V6
			c0-1.2,0.9-2.2,2.1-2.2c2,0.9,4.3,0.9,6.3,0c1.2,0.1,2.1,1.1,2.1,2.2V10.5z"/>
	</g>
	<g transform="translate(2.25 24.75)">
		<path class="st0" d="M6.8,2.3c-2.5,0-4.5,2-4.5,4.5s2,4.5,4.5,4.5s4.5-2,4.5-4.5S9.3,2.3,6.8,2.3z M6.8,9.8c-1.7,0-3-1.3-3-3
			s1.3-3,3-3s3,1.3,3,3S8.5,9.8,6.8,9.8z"/>
	</g>
	<g transform="translate(0 34.5)">
		<path class="st0" d="M12,2.3h-0.2l-0.2,0.1c-1.7,0.8-3.7,0.8-5.3,0L6.2,2.3H6C4,2.3,2.3,4,2.3,6v4.5c0,1.2,1,2.3,2.3,2.3l0,0h9
			c1.2,0,2.3-1,2.3-2.3l0,0V6C15.8,4,14.1,2.3,12,2.3z M14.3,10.5c0,0.4-0.3,0.8-0.8,0.8h-9c-0.4,0-0.8-0.3-0.8-0.8V6
			c0-1.2,0.9-2.2,2.1-2.2c2,0.9,4.3,0.9,6.3,0c1.2,0.1,2.1,1.1,2.1,2.2V10.5z"/>
	</g>
	<g transform="translate(15 36.75)">
		<path class="st0" d="M17.2,3.6L17.2,3.6c-0.2-0.4-0.6-0.6-1-0.4c0,0,0,0,0,0l0,0C12.9,4.7,9.1,4.9,5.6,4l0.7-0.2
			c0.4-0.1,0.6-0.5,0.5-0.9C6.7,2.4,6.2,2.2,5.8,2.3l0,0l-3,0.9c0,0,0,0,0,0c-0.1,0-0.1,0.1-0.2,0.1c0,0-0.1,0-0.1,0
			C2.5,3.5,2.4,3.5,2.4,3.6c0,0.1-0.1,0.2-0.1,0.3c0,0.1,0,0.2,0.1,0.3c0,0,0,0,0,0l1.5,2.9c0.2,0.4,0.6,0.5,1,0.3s0.5-0.6,0.3-1
			l0,0L4.6,5.3c4,1.2,8.4,1,12.2-0.7C17.2,4.5,17.4,4,17.2,3.6z"/>
	</g>
	<g transform="translate(28.5 5.871)">
		<path class="st0" d="M16.3,16.1c-0.3-0.3-0.8-0.3-1.1,0l-1.1,1.1C13.6,10.6,9.4,4.9,3.3,2.4c-0.4-0.2-0.8,0-1,0.4s0,0.8,0.4,1
			C8.2,6.1,12,11.1,12.7,17l-0.8-0.8c-0.3-0.3-0.8-0.3-1.1,0c-0.3,0.3-0.3,0.8,0,1l2.3,2.3c0.3,0.3,0.8,0.3,1.1,0c0,0,0,0,0,0l0,0
			l2.3-2.3C16.6,16.9,16.6,16.4,16.3,16.1C16.3,16.1,16.3,16.1,16.3,16.1z"/>
	</g>
	<g transform="translate(4.5 4.513)">
		<path class="st0" d="M14.3,4.3c0,0,0-0.1,0-0.1c0,0,0,0,0,0s0,0,0,0c0,0,0-0.1-0.1-0.1c0,0-0.1-0.1-0.1-0.1c0,0-0.1-0.1-0.1-0.1
			c0,0-0.1,0-0.1-0.1l-3-1.4c-0.4-0.2-0.8,0-1,0.4c-0.1,0.4,0,0.8,0.4,1l1.6,0.7c-5.8,3.1-9.5,9.2-9.5,15.9C2.3,20.7,2.6,21,3,21
			s0.8-0.3,0.8-0.8c0-5.8,3.1-11.2,8.1-14.2l-0.5,1.1c-0.2,0.4,0,0.8,0.3,1c0.1,0,0.2,0.1,0.3,0.1c0.3,0,0.6-0.2,0.7-0.4l1.5-3.1
			c0,0,0,0,0,0c0-0.1,0-0.1,0-0.2c0,0,0-0.1,0-0.1C14.3,4.4,14.3,4.3,14.3,4.3z"/>
	</g>
</g>
</svg>
