<?xml version="1.0" encoding="utf-8"?>
<!-- Generator: Adobe Illustrator 23.0.2, SVG Export Plug-In . SVG Version: 6.00 Build 0)  -->
<svg version="1.1" id="Camada_1" xmlns="http://www.w3.org/2000/svg" xmlns:xlink="http://www.w3.org/1999/xlink" x="0px" y="0px"
	 viewBox="0 0 50 50" style="enable-background:new 0 0 50 50;" xml:space="preserve">
<style type="text/css">
	.st0{fill:#F7A51E;}
</style>
<g id="startup_1_" transform="translate(-0.078)">
	<path id="Path_353" class="st0" d="M30.9,36.2l-0.8-0.3c-0.3-0.2-0.8,0-0.9,0.3l-2.1,4.3c-0.2,0.3,0,0.8,0.3,0.9l0,0L37,46
		c0.3,0.2,0.8,0,0.9-0.3l2.1-4.3c0.2-0.3,0-0.8-0.3-0.9l-0.4-0.2l-0.1-1.4c0-0.5,0.1-1,0.4-1.5l4.9-6l0,0c1-1.5,1.6-3.1,1.6-4.9
		v-0.1l-1.9-12.9c-0.1-0.3-0.4-0.6-0.8-0.6c-1.7,0.2-2.9,1.6-2.8,3.3l0.1,5.2c-1.4,0.2-2.6,0.9-3.2,2.2l-1.9,4.1
		c-0.3,0.6-0.7,1.1-1.3,1.6l-0.4,0.3C32,31.2,30.8,33.6,30.9,36.2z M37,44.4l-8.3-4l1.5-3.1l8.3,4L37,44.4z M34.8,30.7l0.4-0.3
		c0.7-0.5,1.3-1.3,1.6-2.1l1.9-4c0.5-1,1.6-1.6,2.8-1.5l-2.8,5.8c-0.2,0.3,0,0.8,0.3,0.9c0.3,0.2,0.8,0,0.9-0.3l3.1-6.6
		c0.2-0.3,0-0.8-0.3-0.9l0,0c-0.3-0.1-0.4-0.2-0.7-0.3L42,16.1l0,0c0-0.7,0.3-1.4,0.9-1.6l1.9,11.9c0,1.5-0.4,2.8-1.3,4l-4.9,6
		c-0.6,0.7-0.9,1.6-0.8,2.5v0.6l-5.4-2.6C32,34.6,33,32.1,34.8,30.7z"/>
	<path id="Path_354" class="st0" d="M13.1,23.7c-0.6-1.3-1.8-2.1-3.2-2.2l0.1-5.2c0.1-1.7-1.2-3.1-2.8-3.3c-0.3,0-0.7,0.3-0.8,0.6
		l-2,12.8v0.1c0,1.7,0.5,3.5,1.6,4.9l0,0l4.9,6c0.3,0.4,0.5,0.9,0.4,1.5l-0.1,1.4l-0.4,0.2c-0.3,0.2-0.5,0.6-0.3,0.9l2.1,4.3
		c0.2,0.3,0.6,0.5,0.9,0.3l9.6-4.6c0.3-0.2,0.5-0.6,0.3-0.9l0,0l-2.1-4.3c-0.2-0.3-0.6-0.5-0.9-0.3l-0.8,0.3c0.1-2.6-1-5-3-6.6
		l-0.4-0.3c-0.5-0.4-0.9-0.9-1.3-1.6L13.1,23.7z M21.9,40.5l-8.3,4l-1.5-3.1l8.3-4L21.9,40.5z M15.7,30.7c1.9,1.5,2.8,3.9,2.4,6.2
		l-5.4,2.6v-0.6c0.1-0.9-0.2-1.8-0.8-2.5l-4.9-6c-0.9-1.1-1.3-2.6-1.3-4l1.9-11.9c0.6,0.3,0.9,0.9,0.9,1.6l0,0l-0.2,5.4
		c-0.3,0.1-0.4,0.2-0.7,0.3c-0.3,0.2-0.5,0.6-0.3,0.9l3.2,6.6c0.2,0.3,0.6,0.5,0.9,0.3c0.3-0.2,0.5-0.6,0.3-0.9l-2.8-5.8
		c1.1-0.2,2.2,0.4,2.8,1.5l1.9,4c0.3,0.8,0.9,1.6,1.6,2.1L15.7,30.7z"/>
	<path id="Path_355" class="st0" d="M28.9,24.6v-2h0.2c0.4,0,0.7-0.3,0.7-0.7v-1.2l2.8,1.5c0.3,0.2,0.8,0.1,0.9-0.3
		c0.1-0.1,0.1-0.3,0.1-0.4l-0.3-3.1c-0.2-2.2-1.2-4.3-2.9-5.8L29.8,12v-1.4c0-1.3-0.4-2.5-1.2-3.5l-2.7-3.5
		c-0.3-0.3-0.7-0.3-0.9-0.1c-0.1,0-0.1,0.1-0.1,0.1l-2.7,3.5c-0.8,1-1.2,2.2-1.2,3.5v1.5l-0.6,0.5c-1.7,1.5-2.8,3.5-2.9,5.8
		l-0.3,3.1c0,0.3,0.3,0.7,0.6,0.8c0.2,0,0.3,0,0.4-0.1l2.8-1.5V22c0,0.4,0.3,0.7,0.7,0.7h0.2v2c0,0.4,0.3,0.7,0.8,0.8h5.7
		C28.6,25.3,28.8,25,28.9,24.6z M22.2,21.2v-3.7h6.1v3.7C28.3,21.2,22.2,21.2,22.2,21.2z M31.9,18.5l0.2,1.8l-2.2-1.2v-5.2
		C31,15.1,31.8,16.8,31.9,18.5L31.9,18.5z M23.2,8l2.2-2.8L27.5,8c0.6,0.8,0.9,1.7,0.9,2.7v5.4h-6.1v-5.4C22.2,9.7,22.5,8.8,23.2,8z
		 M18.5,20.3l0.2-1.8c0.2-1.7,0.9-3.4,2.2-4.6v5.2L18.5,20.3z M23.1,23.9v-1.3h4.4v1.3H23.1z"/>
	<path id="Path_356" class="st0" d="M25.3,13.6L25.3,13.6c1.2,0,2.2-1,2.2-2.2s-1-2.2-2.2-2.2c-1.2,0-2.2,1-2.2,2.2
		S24,13.6,25.3,13.6L25.3,13.6z M25.3,10.5c0.4,0,0.9,0.3,0.9,0.9c0,0.4-0.3,0.9-0.9,0.9c-0.4,0-0.9-0.3-0.9-0.9
		S24.8,10.5,25.3,10.5z"/>
	<path id="Path_357" class="st0" d="M24.6,26.7v3.8c0,0.3,0.3,0.7,0.7,0.7c0.3,0,0.7-0.3,0.7-0.7v-3.8c0-0.3-0.3-0.7-0.7-0.7
		C24.9,26,24.6,26.3,24.6,26.7z"/>
	<path id="Path_358" class="st0" d="M27.9,29.3c0.1,0.3,0.5,0.6,0.9,0.4c0.3-0.1,0.6-0.5,0.4-0.9c0,0,0,0,0-0.1l-0.9-2.4
		c-0.1-0.3-0.5-0.6-0.9-0.5c-0.3,0.1-0.6,0.5-0.5,0.9v0.1L27.9,29.3z"/>
	<path id="Path_359" class="st0" d="M22.2,26.5l-0.9,2.4c-0.2,0.3,0.1,0.8,0.4,0.9c0.3,0.2,0.8-0.1,0.9-0.4c0,0,0,0,0-0.1l0.9-2.4
		c0.2-0.3-0.1-0.8-0.4-0.9C22.8,25.8,22.4,26,22.2,26.5L22.2,26.5z"/>
</g>
</svg>
